<svg xmlns="http://www.w3.org/2000/svg" viewBox="0 0 454.95 455.04"><defs><style>.cls-1{fill:#d8d8d8;}</style></defs><g id="Слой_2" data-name="Слой 2"><g id="Слой_1-2" data-name="Слой 1"><path class="cls-1" d="M454.83,49.72a45.79,45.79,0,0,0-7.65-25.36C436.62,8.3,421.78,0,402.54,0Q286.08,0,169.63,0a59.33,59.33,0,0,0-10.37.93c-23.32,4.13-41.48,25.42-41.54,49,0,21-.11,41.9.08,62.85,0,4-1.18,5-5.08,5-23.28-.16-46.55,0-69.83-.1a39.22,39.22,0,0,0-11.71,1.85A43.79,43.79,0,0,0,0,161.67Q0,224,0,286.37q0,61.85,0,123.7C0,435.66,19.41,455,45.09,455Q168.54,455,292,455c25.26,0,45.84-19.49,45.34-45.14-.43-22.27,0-44.56-.18-66.83,0-4.43.95-6,5.72-5.92,19.94.28,39.89.11,59.84.13a65.62,65.62,0,0,0,11.86-1c21.32-3.86,40.29-25.9,40.32-47.66Q455,169.18,454.83,49.72ZM291.62,431Q169,431,46.28,431C31.77,431,24,423.15,24,408.55c0-81.62.16-163.25-.19-244.87-.05-11.15,8.14-22.4,22.41-22.21,40.88.55,81.78.2,122.67.2H292c13.42,0,21.27,7.92,21.27,21.42V409.46C313.28,423.2,305.4,431,291.62,431ZM403.11,313.41c-19.94-.35-39.9-.23-59.84,0-4.7.06-6.18-1.08-6.16-6,.18-48.38-.14-96.76.21-145.14a44.55,44.55,0,0,0-44.71-44.73c-48.21.47-96.41.08-144.62.24-4.8,0-6.58-.83-6.48-6.18.35-20.27.11-40.56.15-60.84a27,27,0,0,1,27-26.83q58.85-.07,117.69,0H402.51C419.31,24,431,35.64,431,52.46q0,116.46.07,232.92C431.08,300.87,418.61,313.67,403.11,313.41Z"/><path class="cls-1" d="M240.45,246.64a12.67,12.67,0,0,1-3.85,8.26q-39.9,39.77-79.69,79.61c-4.88,4.87-11,5.26-15.95.43q-20.68-20.19-40.88-40.88c-4.39-4.48-4.13-10.7-.13-15.34s9.86-5.57,15.26-2.36c4.07,2.41,7,6.12,10.27,9.37,6.88,6.75,13.81,13.46,20.38,20.49,2.68,2.87,4,2.41,6.57-.14,22.45-22.66,45.07-45.15,67.59-67.75,3.85-3.86,8.25-5,13.12-2.73A12,12,0,0,1,240.45,246.64Z"/></g></g></svg>