<svg xmlns="http://www.w3.org/2000/svg" viewBox="0 0 502.31 510.4"><defs><style>.cls-1{fill:#d8d8d8;}</style></defs><g id="Слой_2" data-name="Слой 2"><g id="Слой_1-2" data-name="Слой 1"><path class="cls-1" d="M500.56,148.69A171.26,171.26,0,0,0,457.43,56.6,167.87,167.87,0,0,0,399.8,15.08C366.37.29,331.61-3.77,296,3.56c-38.62,8-71.14,27-97,57.17-25.24,29.49-38.72,63.65-41.28,102.1a164.08,164.08,0,0,0,9.18,65.92c1.34,3.81.82,6.1-2.06,9Q85.28,317,5.87,396.47A18.38,18.38,0,0,0,.05,410.59c.2,27.4.3,54.8,0,82.2-.1,7.9,1.75,14,9.11,17.61H89.82c4.06-1.66,7.16-4.55,10.18-7.64q9.73-10,19.73-19.72a15.75,15.75,0,0,0,5-12c0-8.47.09-16.94-.07-25.41,0-3.05,1-4.05,4-4,8.8.15,17.6.1,26.4,0,7.83-.05,12.37-4.57,12.52-12.3.22-12.36.22-12.36,12.59-12.6,7.74-.14,12.24-4.68,12.3-12.51.06-7.47.12-14.95,0-22.42-.06-3,.88-4.14,4-4.06,6.81.17,13.62.05,20.43.05a18,18,0,0,0,13.76-5.62c11.57-11.91,23.45-23.51,35.13-35.32,1.9-1.92,3.47-2.89,6.42-1.84a173.37,173.37,0,0,0,132.17-6.89,172.42,172.42,0,0,0,56.59-43.7A166.49,166.49,0,0,0,490,236.76C501.06,208.4,504.92,179.12,500.56,148.69Zm-44.38,99.56a145.93,145.93,0,0,1-113,71c-25,2.4-48.72-1.79-71.68-11.42-6.39-2.69-11.64-.75-16.19,3.77Q236.58,330.17,218,348.94a9.29,9.29,0,0,1-7.41,3.13c-9-.19-17.93,0-26.9-.08-11.38-.09-16.94,7.66-16.25,16.31.52,6.44,0,12.95.15,19.42.06,2.85-.66,4.07-3.85,4.2-19.09.74-20.45,2.1-21,20.84-.09,3-.92,4.11-4,4.05-8.13-.17-16.27-.09-24.41-.05q-14.53.08-14.55,14.75c0,10.46-.08,20.93,0,31.39a8.58,8.58,0,0,1-2.79,7c-5.34,5-9.69,12-16,14.69-6.07,2.59-14,.75-21.15.84-2.16,0-4.32,0-6.48,0-8.14,0-16.28-.11-24.41,0-3.06.06-4.34-1-3.95-4a2.09,2.09,0,0,0,0-.5c-1.4-9.07,2.06-15.52,8.72-22.08,47.76-47.12,95.05-94.72,142.5-142.15,4.14-4.15,7.42-8.57,5-14.88a10.91,10.91,0,0,0-17.55-4.44c-1.26,1.07-2.37,2.32-3.55,3.49L31.27,429.88c-.71.71-1.38,1.45-2.12,2.11-1,.85-1.78,2.59-3.1,2.13-1.79-.62-.74-2.6-1-4-2-12,2.81-20.37,11.51-28.92C88,350.71,138.72,299.49,189.73,248.58c5.74-5.73,7.74-11.54,4.24-19.54a137.65,137.65,0,0,1-11.31-63c1.52-28.7,10.43-55.05,27.32-78.6a146.86,146.86,0,0,1,75.2-55.2,135.26,135.26,0,0,1,50.34-7c37.36,2.19,70,15.54,97.08,42,22.77,22.3,37.15,49,42.52,80.28C481.27,183.31,474.82,217,456.18,248.25Z"/><path class="cls-1" d="M382.33,73c-26.72.91-47.26,20.73-47,47.29.3,28.13,21,47.15,47.59,47,27.08-.2,46.29-21.39,46.59-47.06C429.83,94.67,407.83,73,382.33,73Zm-.07,68.78c-10.27,1.63-22.06-10.8-21.72-21.67.37-11.56,9.53-22,21.68-21.93,12.76.12,21.88,8.65,22.2,22C404.7,131.85,394.72,142.83,382.26,141.73Z"/></g></g></svg>