<svg xmlns="http://www.w3.org/2000/svg" viewBox="0 0 511.83 474.62"><defs><style>.cls-1{fill:#d8d8d8;}.cls-2{fill:#eaeaea;}</style></defs><g id="Слой_2" data-name="Слой 2"><g id="Слой_1-2" data-name="Слой 1"><path class="cls-1" d="M0,239.6c2.45-5.84,6.26-10.1,12.94-10.94,8.7-1.09,16.07,5.68,16.07,14.88q0,65.82,0,131.64c0,30.09,16.32,54.6,43.78,64.86a58.45,58.45,0,0,0,20.39,4c108.42.06,216.85.25,325.27-.07,32.89-.1,61.63-27.48,63.44-59.75,2-35.86.35-71.74.87-107.61.15-10.13,0-20.28,0-30.42,0-8.19,4-13.43,11.51-15.25,6.3-1.53,12.88,1.91,16.33,8.53.38.72.79,1.41,1.18,2.11V383.27c-1.11,2.41-.23,5-.52,7.43-1.45,24.54-13.09,44-30.95,59.94-18.82,16.79-41.23,24-66.51,24q-159.92-.33-319.83-.1c-41.21,0-79-27.87-90.94-67.09A66.93,66.93,0,0,1,.52,390.75c-.29-2.49.59-5.05-.52-7.48Z"/><path class="cls-2" d="M1,390.27l-1,0v-7C1.89,385.39.65,387.94,1,390.27Z"/><path class="cls-2" d="M511.83,390.25l-1,0c.32-2.33-.92-4.88,1-7Z"/><path class="cls-1" d="M241,309.49v-5.41q0-142.63,0-285.26c0-5.75.64-11.41,5.48-15.35a14.49,14.49,0,0,1,15.48-2.16c6.37,2.64,8.2,8.25,8.91,14.43a39.53,39.53,0,0,1,0,4.49q0,141.87,0,283.76v5.56c2.42.13,3.22-1.83,4.41-3,20.88-20.76,41.68-41.62,62.58-62.37,8.83-8.76,22.53-5.17,25.57,6.61,1.56,6-1.36,10.87-5.26,14.79q-44.9,45.12-90.09,89.94c-8.19,8.11-16.22,8.05-24.43-.09q-45.56-45.17-90.82-90.62c-6.86-6.89-6.48-15.55.39-22,5.57-5.24,14.43-4.63,21,1.68,5.53,5.29,10.86,10.79,16.28,16.2q22.78,22.74,45.54,45.52a27.89,27.89,0,0,1,3.07,4.55Z"/></g></g></svg>