<svg xmlns="http://www.w3.org/2000/svg" viewBox="0 0 297.41 372.58"><defs><style>.cls-1{fill:#d8d8d8;}</style></defs><g id="Слой_2" data-name="Слой 2"><g id="Слой_1-2" data-name="Слой 1"><path class="cls-1" d="M297.13,188.86c-.14-17.68-11.54-32.78-30.49-34.65-5.1-.5-5.33-2.44-5.36-6.37-.12-16.59,1.18-33.25-1-49.75-4-29.53-17.56-54.14-40.57-72.86-25.29-20.56-54.6-28.52-87-24C106.41,4.88,84.45,16.69,66.31,36,45.24,58.51,36.15,85.38,35.94,115.7c-.08,11.3-.11,22.61,0,33.91,0,3.13-.8,4.25-4.15,4.45a30.38,30.38,0,0,0-15.46,4.83C4.72,166.74,0,178,0,191.63q0,68.82,0,137.63a105.8,105.8,0,0,0,.85,14.86C3,359.59,17.09,372.37,32.61,372.38q57.84,0,115.68,0c37.74,0,75.48-.46,113.2.18,21,.36,35.52-15.29,35.66-35.11Q297.66,263.17,297.13,188.86ZM50.05,108.49C51.31,86.25,58.79,66.25,73.34,49c16.85-20,38.36-31.7,64-34.45,27.47-2.94,52.54,4.06,74.2,22.1C228.81,51,239.51,69.21,244.71,90.77c2.49,10.34,2.89,21,2.7,31.59-.16,8.81-.26,17.63.06,26.43.16,4.3-1.35,5.52-5.4,5.2a77,77,0,0,0-12,0c-3.89.31-4.75-1.28-4.7-4.88.18-13.3.24-26.61,0-39.91-.3-18.12-6.85-33.9-18.78-47.46C190.15,43,169.24,34.17,144.44,35.29,127,36.07,111.62,42.47,98.33,54c-14.68,12.7-23.48,28.67-26,47.73-1.12,8.32-.19,16.91-.19,25.38h-.33c0,7.49-.17,15,.07,22.45.12,3.58-1.2,4.65-4.6,4.46-4.31-.23-8.65-.19-13,0-3.06.14-4.5-.61-4.46-4.09C50,136.08,49.26,122.24,50.05,108.49Zm35.92-2c1.25-18,9.52-32.83,23.92-44C135.12,42.77,171.6,44.94,193.7,68c11.38,11.86,17.92,26.12,17.83,43-.07,12.63-.19,25.26.08,37.88.1,4.29-1.38,5.25-5.4,5.21-19.27-.19-38.54-.08-57.82-.08s-38.55-.08-57.82.07c-3.58,0-5-.81-4.91-4.68C85.89,135,85,120.69,86,106.47Zm197.2,230.6c-.08,12.81-7.92,21.65-21.92,21.5-37.72-.42-75.45-.15-113.18-.15s-75.46-.26-113.18.14c-13.44.15-20.76-9.94-20.81-20.52q-.35-74.54,0-149.08c.06-13.48,8.45-21.06,21.85-21.06,75.12,0,150.24.12,225.37-.12,13.74,0,21.84,9.23,21.9,21.7Q283.57,263.28,283.17,337.07Z"/></g></g></svg>