<svg xmlns="http://www.w3.org/2000/svg" viewBox="0 0 510.81 298.25"><defs><style>.cls-1{fill:#6b6b6b;}</style></defs><g id="Слой_2" data-name="Слой 2"><g id="Слой_1-2" data-name="Слой 1"><path class="cls-1" d="M0,16.45A76.88,76.88,0,0,1,3.68,9.56C11.44-2.06,27.36-3.33,37.23,7.18,49.85,20.63,62.18,34.37,74.6,48q74.75,82,149.46,164c9.51,10.45,19.08,20.84,28.48,31.39,2.16,2.42,3.35,2.64,5.67.08q72.94-80.28,146-160.39,34.42-37.78,68.89-75.53C479.33.8,487-1.58,495.7,1c8.17,2.45,13.1,8.32,14.7,16.66a20.13,20.13,0,0,1-5.18,18Q482,61.4,458.62,87,368,186.55,277.28,286.07c-5.3,5.82-10.41,11.55-19.19,12.11-8.37.53-15.2-1.78-20.93-8.1q-48.1-53-96.38-105.79Q76.8,114.06,12.83,43.84C7.94,38.47,2.79,33.33,0,26.43Z"/></g></g></svg>