<svg xmlns="http://www.w3.org/2000/svg" viewBox="0 0 623.22 199.18"><defs><style>.cls-1{fill:#868686;}</style></defs><g id="Слой_2" data-name="Слой 2"><g id="Слой_1-2" data-name="Слой 1"><path class="cls-1" d="M0,86.07H576.71c-.84-.9-1.38-1.5-2-2.07Q544.67,54,514.6,23.92c-5.54-5.54-6.32-12.4-2.14-18.35a13.53,13.53,0,0,1,18.6-3.18,23.52,23.52,0,0,1,2.88,2.48q42.15,42,84.27,84.13c5.47,5.45,6.52,12,2.84,17.77a20.38,20.38,0,0,1-2.69,3.25q-42.25,42.24-84.55,84.44c-6.76,6.74-16.55,6.18-21.6-1.18a13.33,13.33,0,0,1,.56-15.94,32,32,0,0,1,2.41-2.66Q545,144.86,574.89,115a4.15,4.15,0,0,0,1.5-1.92H0Z"/></g></g></svg>