<svg xmlns="http://www.w3.org/2000/svg" viewBox="0 0 510.93 365.82"><defs><style>.cls-1{fill:#e6e6e6;}.cls-2{fill:#e7e7e7;}.cls-3{fill:#d8d8d8;}</style></defs><g id="Слой_2" data-name="Слой 2"><g id="Слой_1-2" data-name="Слой 1"><path class="cls-1" d="M0,156c2.1,3.51.52,7.35,1,11l-1,0Z"/><path class="cls-2" d="M0,140.07a7.45,7.45,0,0,1,0,8Z"/><path class="cls-3" d="M510.93,146.4A35,35,0,0,0,475.45,111c-56.69.41-113.39.11-170.09.21-3.61,0-5.64-.72-6.87-4.58A153,153,0,0,0,166,.63a145.25,145.25,0,0,0-51.29,4.29C84.68,13.09,59.21,28.5,38.47,52,22,70.67,11,92,4.53,115.93c-1.87,7-2,14.33-4.53,21.15v3a13,13,0,0,1,0,8v8c1.39,3.57-.32,7.43,1,11a110.22,110.22,0,0,0,4.93,27.76c8.68,29.53,24.44,54.47,48,74.63a150.69,150.69,0,0,0,57.87,30.87,32.81,32.81,0,0,1,15.07,8.75c10.81,10.8,21.12,22.11,32.7,32.12,5.19,4.5,11,5.67,17,2.68,6.51-3.24,10.4-8.59,10.1-16.36-.16-4,0-8,0-12,0-12.76,0-12.76,12-16.36a5,5,0,0,0,.94-.34c4.21-2.19,5.47,0,6,3.81,2.48,17.42,15.81,28.95,33.5,29,16.63,0,33.26.13,49.88-.08,4.13-.05,7.13,1,10.05,4.06,8.38,8.78,17,17.32,25.71,25.78,8.44,8.2,20.73,4.49,23.64-6.87,1.43-5.6,1-11.25.76-16.84-.21-4.74,1.13-6.18,6-6.15,40.07.19,80.14.12,120.21.1,21.34,0,35.56-14.24,35.57-35.6C510.82,246.16,510.58,196.28,510.93,146.4Zm-306,133.39c-8.45,3.57-17.3,5.69-26.14,7.9-6.37,1.59-8.17,3.87-8.18,10.44,0,10.14,0,20.28,0,30.83-2.37-.59-3.23-2.12-4.36-3.24-11.2-11.14-22.42-22.26-33.48-33.54a18.31,18.31,0,0,0-9.33-5.35,133.7,133.7,0,0,1-49.62-22.07C53,249.81,37.22,230.68,27.13,207.06A134.1,134.1,0,0,1,16.06,149c1.12-30.78,11.34-58.32,30.86-82.26C67.5,41.48,93.86,25.5,125.67,19a133.78,133.78,0,0,1,82.63,8.8,131.46,131.46,0,0,1,45.4,32.48c18.8,21,30.77,45.3,34.72,73.46,3.22,22.91,1.31,45.25-6.91,66.84Q260.23,256.45,204.93,279.79Zm270.87,36c-43.89-.29-87.79-.12-131.68-.12-8.75,0-10.91,2.15-11,10.73,0,5.15-.07,10.29-.25,15.44a11.5,11.5,0,0,1-1.05,3.16c-1.95-.58-2.81-2.1-4-3.21q-12-11.54-24-23.17a10.74,10.74,0,0,0-8.12-3c-18.79.08-37.57.18-56.36,0-15.35-.15-19.74-11.79-18.81-23.19.22-2.6,2.39-3.42,4.3-4.39a136.23,136.23,0,0,0,36.31-26.69c23.87-24.42,38.88-53.29,43.27-87.49,1.74-13.55,2.2-27,0-40.47-.94-5.65-.28-6.3,5.46-6.3q83,0,166.09,0c11.62,0,18.87,7.25,18.88,19,0,50.22-.08,100.43.08,150.64A18.94,18.94,0,0,1,475.8,315.79Z"/><path class="cls-3" d="M203.55,124.08c-.08,24.57-14,44.19-33.2,50.77-5.9,2-9.18,5.53-9.69,11.72s-3.44,8.85-8.61,8.37c-4.46-.41-7.87-4.95-7.27-10.16,1.3-11.38,6.37-19.81,17.81-24,16.88-6.11,25.3-18.41,25-35.36-.3-15.2-15.58-31-30.75-32.31-20.17-1.74-37.07,12.69-38.19,32.5-.24,4.12-1.26,8.39-6.5,9.39-4,.76-7.17-.75-8.69-4.2-1.62-3.69-1.09-7.93-.37-11.78C107,98,123.78,80.72,144.78,77.55,159.61,75.31,173.27,79,185.09,89,197.41,99.47,203.26,112.64,203.55,124.08Z"/><path class="cls-3" d="M160.65,221.27c0,5-2.56,7.65-7.58,7.64-4.78,0-8-3.13-7.88-7.66s3.11-7.29,7.66-7.39C157.93,213.76,160.61,216.31,160.65,221.27Z"/><path class="cls-3" d="M315.22,213.91c2.71-.54,4.58,1,6.42,2.8,10.53,10.61,21.27,21,31.62,31.81,3.29,3.43,5,4,8.72.19,24.1-24.52,48.51-48.73,72.84-73a21,21,0,0,1,4.11-3.58c3.6-2.06,7.2-1.61,9.95,1.47,2.53,2.83,3.16,6.19.61,9.51a47.7,47.7,0,0,1-3.8,4.57q-39.43,39.49-78.93,78.93a27.73,27.73,0,0,1-5,4c-3.12,1.92-6.28,2-9.05-.81q-21.51-21.48-43-43c-2.29-2.3-3.34-5.28-2-8.2S311.33,213.37,315.22,213.91Z"/></g></g></svg>