<svg xmlns="http://www.w3.org/2000/svg" viewBox="0 0 495.54 508.55"><defs><style>.cls-1{fill:#eafb56;}</style></defs><g id="Слой_2" data-name="Слой 2"><g id="Слой_1-2" data-name="Слой 1"><path class="cls-1" d="M495,.61c-1.56-1.59-3.37.35-4.93,1Q246.33,99.08,2.7,196.67c-1,.37-2.34.36-2.7,2.15,8.31,7.47,16.68,15,25.11,22.53Q87.85,277.18,150.7,332.9c2.81,2.49,3.66,5,3.66,8.57q-.15,80.79,0,161.59c0,1.69-.7,3.57.88,5.49,2.07-2.35,4.06-4.54,6-6.8q37.19-43.94,74.3-87.94c2.12-2.53,3.23-2.64,5.71-.42q35.43,31.78,71.1,63.31c11.16,9.91,22.34,19.79,34,30.12.71-2.31,1.17-3.72,1.59-5.15q28.74-97.12,57.45-194.24Q449.87,156.6,494.28,5.75C494.77,4.08,496.4,2.09,495,.61ZM161.35,312.15q-55.9-50-112.13-99.67c-2.32-2.06-4.55-4.21-7.43-6.88L427.75,51c-.75,3.66-2.45,4.61-3.69,5.85q-127.47,127.52-254.9,255C166.17,314.89,164.67,315.12,161.35,312.15Zm58.15,85.62q-20.52,24-41,48.12c-.17.19-.57.18-1.12.35V356.73l33.5,29.72c2.74,2.42,5.41,4.92,8.23,7.23C220.77,395,220.87,396.17,219.5,397.77ZM334.76,466c-6-5.28-11.6-10.07-17.1-14.95q-42.07-37.41-84.13-74.86c-15.88-14.14-31.66-28.39-47.74-42.3-3.19-2.75-2.88-3.94-.19-6.63q108-107.77,215.84-215.7,24.33-24.33,48.69-48.63c1.22-1.22,2.11-2.94,4.69-3.46C414.81,194.91,374.9,330,334.76,466Z"/></g></g></svg>